<mxfile host="app.diagrams.net" modified="2024-04-19T22:10:09.480Z" agent="Mozilla/5.0 (Windows NT 10.0; Win64; x64) AppleWebKit/537.36 (KHTML, like Gecko) Chrome/124.0.0.0 Safari/537.36" etag="bQIMVjUL2FYAH876ISe2" version="24.2.7" type="github">
  <diagram name="Page-1" id="QZbvU5UdVqbodoA97YqL">
    <mxGraphModel dx="2459" dy="716" grid="0" gridSize="10" guides="1" tooltips="1" connect="1" arrows="1" fold="1" page="0" pageScale="1" pageWidth="827" pageHeight="1169" math="0" shadow="0">
      <root>
        <mxCell id="0" />
        <mxCell id="1" parent="0" />
        <mxCell id="QZN1cMEf-9EO_mcpa69U-1" value="&lt;b&gt;Review Doctor&lt;/b&gt;" style="shape=parallelogram;perimeter=parallelogramPerimeter;whiteSpace=wrap;html=1;fixedSize=1;fillColor=#dae8fc;strokeColor=#000000;fontFamily=Helvetica;fontSize=11;fontColor=default;labelBackgroundColor=none;" parent="1" vertex="1">
          <mxGeometry x="-781" y="321" width="207" height="29" as="geometry" />
        </mxCell>
        <mxCell id="GDvIqiIspNc1gY_K4FjV-1" value="" style="ellipse;whiteSpace=wrap;html=1;aspect=fixed;fillColor=#FFD966;strokeWidth=2;" vertex="1" parent="1">
          <mxGeometry x="-691.5" y="400" width="28" height="28" as="geometry" />
        </mxCell>
        <mxCell id="GDvIqiIspNc1gY_K4FjV-2" value="" style="endArrow=block;html=1;rounded=0;endFill=1;strokeWidth=2;" edge="1" source="GDvIqiIspNc1gY_K4FjV-1" parent="1" target="QZN1cMEf-9EO_mcpa69U-1">
          <mxGeometry width="50" height="50" relative="1" as="geometry">
            <mxPoint x="-675.504815076529" y="421.9718581716346" as="sourcePoint" />
            <mxPoint x="-679.5" y="377" as="targetPoint" />
          </mxGeometry>
        </mxCell>
        <mxCell id="GDvIqiIspNc1gY_K4FjV-3" value="" style="endArrow=none;html=1;rounded=0;strokeWidth=2;" edge="1" target="GDvIqiIspNc1gY_K4FjV-1" parent="1" source="GDvIqiIspNc1gY_K4FjV-4">
          <mxGeometry width="50" height="50" relative="1" as="geometry">
            <mxPoint x="-676.5" y="484" as="sourcePoint" />
            <mxPoint x="-651.5" y="420" as="targetPoint" />
          </mxGeometry>
        </mxCell>
        <mxCell id="GDvIqiIspNc1gY_K4FjV-4" value="&lt;b&gt;Review Form produced&lt;/b&gt;" style="shape=parallelogram;perimeter=parallelogramPerimeter;whiteSpace=wrap;html=1;fixedSize=1;fillColor=#dae8fc;strokeColor=#000000;strokeWidth=3;fontFamily=Helvetica;fontSize=11;fontColor=default;labelBackgroundColor=none;" vertex="1" parent="1">
          <mxGeometry x="-1143" y="527" width="209" height="43" as="geometry" />
        </mxCell>
        <mxCell id="GDvIqiIspNc1gY_K4FjV-5" value="&lt;b&gt;Review stored in DB&lt;/b&gt;" style="shape=parallelogram;perimeter=parallelogramPerimeter;whiteSpace=wrap;html=1;fixedSize=1;fillColor=#dae8fc;strokeColor=#000000;strokeWidth=3;fontFamily=Helvetica;fontSize=11;fontColor=default;labelBackgroundColor=none;" vertex="1" parent="1">
          <mxGeometry x="-683" y="527" width="209" height="43" as="geometry" />
        </mxCell>
        <mxCell id="GDvIqiIspNc1gY_K4FjV-6" value="&lt;b&gt;Form filled&lt;/b&gt;" style="shape=parallelogram;perimeter=parallelogramPerimeter;whiteSpace=wrap;html=1;fixedSize=1;fillColor=#FFD966;strokeColor=#000000;strokeWidth=3;fontFamily=Helvetica;fontSize=11;fontColor=default;labelBackgroundColor=none;" vertex="1" parent="1">
          <mxGeometry x="-921" y="527" width="231" height="43" as="geometry" />
        </mxCell>
        <mxCell id="GDvIqiIspNc1gY_K4FjV-10" value="" style="group" vertex="1" connectable="0" parent="1">
          <mxGeometry x="-865.5" y="681" width="120" height="40" as="geometry" />
        </mxCell>
        <mxCell id="GDvIqiIspNc1gY_K4FjV-11" value="&lt;div&gt;&lt;b&gt;Patient&lt;/b&gt;&lt;/div&gt;" style="shape=hexagon;perimeter=hexagonPerimeter2;whiteSpace=wrap;html=1;fixedSize=1;fillColor=#FFF2CC;fontFamily=Helvetica;fontSize=11;fontColor=default;labelBackgroundColor=none;" vertex="1" parent="GDvIqiIspNc1gY_K4FjV-10">
          <mxGeometry width="120" height="40" as="geometry" />
        </mxCell>
        <mxCell id="GDvIqiIspNc1gY_K4FjV-12" value="" style="shape=umlActor;verticalLabelPosition=bottom;verticalAlign=top;html=1;outlineConnect=0;fillColor=none;strokeWidth=2;fontFamily=Helvetica;fontSize=11;fontColor=default;labelBackgroundColor=default;" vertex="1" parent="GDvIqiIspNc1gY_K4FjV-10">
          <mxGeometry x="14.983050847457434" y="7.75" width="10.372881355932204" height="24.5" as="geometry" />
        </mxCell>
        <mxCell id="GDvIqiIspNc1gY_K4FjV-13" value="" style="ellipse;whiteSpace=wrap;html=1;aspect=fixed;fillColor=#FAADFF;strokeWidth=2;fontFamily=Helvetica;fontSize=11;fontColor=default;labelBackgroundColor=default;" vertex="1" parent="1">
          <mxGeometry x="-819.5" y="613" width="28" height="28" as="geometry" />
        </mxCell>
        <mxCell id="GDvIqiIspNc1gY_K4FjV-14" value="" style="endArrow=block;html=1;rounded=0;endFill=1;strokeWidth=2;strokeColor=default;align=center;verticalAlign=middle;fontFamily=Helvetica;fontSize=11;fontColor=default;labelBackgroundColor=default;" edge="1" source="GDvIqiIspNc1gY_K4FjV-13" parent="1" target="GDvIqiIspNc1gY_K4FjV-6">
          <mxGeometry width="50" height="50" relative="1" as="geometry">
            <mxPoint x="-735.004815076529" y="568.9718581716346" as="sourcePoint" />
            <mxPoint x="-739" y="524" as="targetPoint" />
          </mxGeometry>
        </mxCell>
        <mxCell id="GDvIqiIspNc1gY_K4FjV-15" value="" style="endArrow=none;html=1;rounded=0;strokeWidth=2;strokeColor=default;align=center;verticalAlign=middle;fontFamily=Helvetica;fontSize=11;fontColor=default;labelBackgroundColor=default;" edge="1" target="GDvIqiIspNc1gY_K4FjV-13" parent="1" source="GDvIqiIspNc1gY_K4FjV-11">
          <mxGeometry width="50" height="50" relative="1" as="geometry">
            <mxPoint x="-736" y="631" as="sourcePoint" />
            <mxPoint x="-711" y="567" as="targetPoint" />
          </mxGeometry>
        </mxCell>
        <mxCell id="GDvIqiIspNc1gY_K4FjV-17" value="" style="endArrow=none;html=1;rounded=0;strokeWidth=2;" edge="1" parent="1" source="GDvIqiIspNc1gY_K4FjV-5" target="GDvIqiIspNc1gY_K4FjV-1">
          <mxGeometry width="50" height="50" relative="1" as="geometry">
            <mxPoint x="-667" y="536" as="sourcePoint" />
            <mxPoint x="-667" y="438" as="targetPoint" />
          </mxGeometry>
        </mxCell>
        <mxCell id="GDvIqiIspNc1gY_K4FjV-19" value="&lt;div&gt;&lt;b&gt;Database controller&lt;/b&gt;&lt;/div&gt;" style="shape=hexagon;perimeter=hexagonPerimeter2;whiteSpace=wrap;html=1;fixedSize=1;fillColor=#FFF2CC;fontFamily=Helvetica;fontSize=11;fontColor=default;labelBackgroundColor=none;" vertex="1" parent="1">
          <mxGeometry x="-651.5" y="681" width="146" height="38" as="geometry" />
        </mxCell>
        <mxCell id="GDvIqiIspNc1gY_K4FjV-20" value="" style="ellipse;whiteSpace=wrap;html=1;aspect=fixed;fillColor=#FF0000;strokeWidth=2;" vertex="1" parent="1">
          <mxGeometry x="-592.5" y="613" width="28" height="28" as="geometry" />
        </mxCell>
        <mxCell id="GDvIqiIspNc1gY_K4FjV-21" value="" style="endArrow=block;html=1;rounded=0;endFill=1;strokeWidth=2;" edge="1" source="GDvIqiIspNc1gY_K4FjV-20" parent="1" target="GDvIqiIspNc1gY_K4FjV-5">
          <mxGeometry width="50" height="50" relative="1" as="geometry">
            <mxPoint x="-758.004815076529" y="798.9718581716346" as="sourcePoint" />
            <mxPoint x="-762" y="754" as="targetPoint" />
          </mxGeometry>
        </mxCell>
        <mxCell id="GDvIqiIspNc1gY_K4FjV-22" value="" style="endArrow=none;html=1;rounded=0;strokeWidth=2;" edge="1" target="GDvIqiIspNc1gY_K4FjV-20" parent="1" source="GDvIqiIspNc1gY_K4FjV-19">
          <mxGeometry width="50" height="50" relative="1" as="geometry">
            <mxPoint x="-759" y="861" as="sourcePoint" />
            <mxPoint x="-734" y="797" as="targetPoint" />
          </mxGeometry>
        </mxCell>
        <mxCell id="GDvIqiIspNc1gY_K4FjV-23" value="&lt;b&gt;Analytics computed&lt;/b&gt;" style="shape=parallelogram;perimeter=parallelogramPerimeter;whiteSpace=wrap;html=1;fixedSize=1;fillColor=#dae8fc;strokeColor=#000000;strokeWidth=3;fontFamily=Helvetica;fontSize=11;fontColor=default;labelBackgroundColor=none;" vertex="1" parent="1">
          <mxGeometry x="-460" y="527" width="209" height="43" as="geometry" />
        </mxCell>
        <mxCell id="GDvIqiIspNc1gY_K4FjV-25" value="" style="endArrow=none;html=1;rounded=0;strokeWidth=2;" edge="1" parent="1" source="GDvIqiIspNc1gY_K4FjV-6" target="GDvIqiIspNc1gY_K4FjV-1">
          <mxGeometry width="50" height="50" relative="1" as="geometry">
            <mxPoint x="-863" y="536" as="sourcePoint" />
            <mxPoint x="-680" y="431" as="targetPoint" />
          </mxGeometry>
        </mxCell>
        <mxCell id="GDvIqiIspNc1gY_K4FjV-26" value="" style="endArrow=none;html=1;rounded=0;strokeWidth=2;" edge="1" parent="1" source="GDvIqiIspNc1gY_K4FjV-23" target="GDvIqiIspNc1gY_K4FjV-1">
          <mxGeometry width="50" height="50" relative="1" as="geometry">
            <mxPoint x="-451" y="536" as="sourcePoint" />
            <mxPoint x="-655" y="430" as="targetPoint" />
          </mxGeometry>
        </mxCell>
        <mxCell id="GDvIqiIspNc1gY_K4FjV-31" value="&lt;div&gt;&lt;b&gt;Analytics controller&lt;/b&gt;&lt;/div&gt;" style="shape=hexagon;perimeter=hexagonPerimeter2;whiteSpace=wrap;html=1;fixedSize=1;fillColor=#FFF2CC;fontFamily=Helvetica;fontSize=11;fontColor=default;labelBackgroundColor=none;" vertex="1" parent="1">
          <mxGeometry x="-428.5" y="681" width="146" height="38" as="geometry" />
        </mxCell>
        <mxCell id="GDvIqiIspNc1gY_K4FjV-32" value="" style="ellipse;whiteSpace=wrap;html=1;aspect=fixed;fillColor=#FF0000;strokeWidth=2;" vertex="1" parent="1">
          <mxGeometry x="-369.5" y="613" width="28" height="28" as="geometry" />
        </mxCell>
        <mxCell id="GDvIqiIspNc1gY_K4FjV-33" value="" style="endArrow=block;html=1;rounded=0;endFill=1;strokeWidth=2;" edge="1" parent="1" source="GDvIqiIspNc1gY_K4FjV-32" target="GDvIqiIspNc1gY_K4FjV-23">
          <mxGeometry width="50" height="50" relative="1" as="geometry">
            <mxPoint x="-530.504815076529" y="800.9718581716346" as="sourcePoint" />
            <mxPoint x="-350.5" y="572" as="targetPoint" />
          </mxGeometry>
        </mxCell>
        <mxCell id="GDvIqiIspNc1gY_K4FjV-34" value="" style="endArrow=none;html=1;rounded=0;strokeWidth=2;" edge="1" parent="1" source="GDvIqiIspNc1gY_K4FjV-31" target="GDvIqiIspNc1gY_K4FjV-32">
          <mxGeometry width="50" height="50" relative="1" as="geometry">
            <mxPoint x="-531.5" y="863" as="sourcePoint" />
            <mxPoint x="-506.5" y="799" as="targetPoint" />
          </mxGeometry>
        </mxCell>
        <mxCell id="GDvIqiIspNc1gY_K4FjV-35" value="&lt;div&gt;&lt;b&gt;Reviews controller&lt;/b&gt;&lt;/div&gt;" style="shape=hexagon;perimeter=hexagonPerimeter2;whiteSpace=wrap;html=1;fixedSize=1;fillColor=#FFF2CC;fontFamily=Helvetica;fontSize=11;fontColor=default;labelBackgroundColor=none;" vertex="1" parent="1">
          <mxGeometry x="-1111.5" y="681" width="146" height="38" as="geometry" />
        </mxCell>
        <mxCell id="GDvIqiIspNc1gY_K4FjV-36" value="" style="ellipse;whiteSpace=wrap;html=1;aspect=fixed;fillColor=#FF0000;strokeWidth=2;" vertex="1" parent="1">
          <mxGeometry x="-1052.5" y="613" width="28" height="28" as="geometry" />
        </mxCell>
        <mxCell id="GDvIqiIspNc1gY_K4FjV-37" value="" style="endArrow=block;html=1;rounded=0;endFill=1;strokeWidth=2;" edge="1" parent="1" source="GDvIqiIspNc1gY_K4FjV-36" target="GDvIqiIspNc1gY_K4FjV-4">
          <mxGeometry width="50" height="50" relative="1" as="geometry">
            <mxPoint x="-1227.504815076529" y="810.9718581716346" as="sourcePoint" />
            <mxPoint x="-1047.5" y="582" as="targetPoint" />
          </mxGeometry>
        </mxCell>
        <mxCell id="GDvIqiIspNc1gY_K4FjV-38" value="" style="endArrow=none;html=1;rounded=0;strokeWidth=2;" edge="1" parent="1" source="GDvIqiIspNc1gY_K4FjV-35" target="GDvIqiIspNc1gY_K4FjV-36">
          <mxGeometry width="50" height="50" relative="1" as="geometry">
            <mxPoint x="-1228.5" y="873" as="sourcePoint" />
            <mxPoint x="-1203.5" y="809" as="targetPoint" />
          </mxGeometry>
        </mxCell>
      </root>
    </mxGraphModel>
  </diagram>
</mxfile>
